PathFileType	4	(X/Y/Z)	D:\TRACE\v60_Jaco2_6-2-23\JustBodyDRS_Motion3_4-v60.trc
DataRate	CameraRate	NumFrames	NumMarkers	Units	OrigDataRate	OrigDataStartFrame	OrigNumFrames
100.00	100.00	      24	9	mm	100.00	1751	      7000
Frame#	Time	front left toe			Front right toe			aft left toe			aft right toe			Arm			FL body			FR body			AL Body			AR Body			
		X1	Y1	Z1	X2	Y2	Z2	X3	Y3	Z3	X4	Y4	Z4	X5	Y5	Z5	X6	Y6	Z6	X7	Y7	Z7	X8	Y8	Z8	X9	Y9	Z9	

1751	17.500	-192.51651	13.08854	-117.46380	178.08513	130.13063	-185.18585	-166.43088	135.90044	460.47467	210.91879	17.15329	485.09018	14.11631	1205.08789	-167.50478	-90.70989	576.85022	-287.61133	67.07278	573.20862	-295.74710	-35.71044	550.34479	655.16357	116.01309	537.58685	646.07190	
1752	17.510	-192.60619	13.09703	-117.65756	178.25056	123.58884	-187.25060	-164.86250	129.10541	459.46414	210.82198	17.19588	485.00290	14.27415	1204.98560	-169.06279	-91.27343	576.94745	-289.09201	67.12748	573.12622	-297.46735	-35.34150	550.53772	653.55640	116.76389	537.51135	644.16333	
1753	17.520	-192.81108	13.00543	-117.77318	178.70509	117.27874	-189.46494	-164.29562	121.91279	457.91617	210.72249	17.19049	484.73535	14.02682	1204.95654	-170.82074	-91.77139	576.73810	-290.33737	66.20822	572.88684	-298.92728	-34.99597	550.53174	652.17230	116.97410	537.63416	642.69012	
1754	17.530	-192.93491	12.78742	-117.79848	179.20970	109.77462	-191.81657	-164.07309	114.30962	455.43756	210.53662	17.28727	484.59103	13.75706	1204.60889	-172.35736	-92.44778	576.35748	-291.69360	65.44977	572.76465	-300.30783	-34.75613	550.70514	650.68884	117.27705	537.71826	641.01733	
1755	17.540	-193.04214	12.56009	-117.74916	179.66203	102.15736	-194.55916	-163.93430	106.25246	452.68503	210.43250	17.41676	484.50781	13.14896	1204.51331	-174.09483	-93.06074	576.27484	-293.31006	65.29249	572.34961	-302.13580	-34.57675	550.85229	649.18958	117.63403	537.87518	639.71149	
1756	17.550	-193.16708	12.37914	-117.76933	179.80328	94.08885	-196.86421	-163.67221	98.02132	449.87579	210.34074	17.48293	484.27808	12.41305	1204.14697	-175.83084	-93.46335	576.03387	-294.51910	65.11057	572.14331	-303.79721	-34.63624	550.94037	648.02673	118.32243	537.71906	638.11841	
1757	17.560	-193.31084	12.39440	-117.92075	180.61526	85.90845	-199.26427	-163.54901	90.00447	446.70181	210.31236	17.58076	484.17685	11.94263	1203.90015	-177.59009	-94.09777	575.93164	-296.23468	64.43359	572.03082	-305.26337	-34.58617	550.81134	646.18866	118.48981	537.67395	636.45856	
1758	17.570	-193.46216	12.38058	-118.10246	179.89365	77.25748	-201.91985	-162.51608	81.20197	444.37582	210.16913	17.66057	484.08289	11.54336	1203.77319	-179.35046	-94.68192	576.03668	-297.96381	64.18230	571.94037	-307.00629	-34.47681	550.59735	644.40662	118.31302	537.62946	634.86694	
1759	17.580	-193.58327	12.35569	-118.16439	180.18555	69.19288	-204.37973	-162.12599	72.48086	441.69989	210.06183	17.75515	484.02051	11.33766	1203.66785	-180.95030	-95.10971	575.90430	-299.35544	63.53271	571.85199	-308.66962	-34.40128	550.56372	642.99725	118.66072	537.48145	633.05774	
1760	17.590	-193.70757	12.29963	-118.22290	180.09714	61.17135	-206.57086	-161.89511	63.48624	439.65796	210.06284	17.85476	483.98172	10.91608	1203.83752	-182.63138	-95.43624	575.65778	-300.99146	63.09809	571.70972	-310.40512	-34.38168	550.53217	641.41614	117.70590	537.59998	631.36975	
1761	17.600	-193.82988	12.25026	-118.29272	180.75789	53.48831	-208.49997	-162.00247	55.39816	437.74991	209.79953	17.97473	483.75586	10.28154	1203.85144	-183.92337	-96.02330	575.79425	-302.84189	62.08024	571.84052	-312.00372	-34.12228	550.38751	639.44373	117.89845	537.59265	629.48236	
1762	17.610	-193.96745	12.30068	-118.40198	180.81529	46.35501	-210.27518	-161.58870	47.37347	435.79068	209.56116	18.03450	483.51224	9.39697	1204.05261	-185.72455	-96.54653	575.91840	-304.76407	61.72285	571.98047	-313.79248	-34.32673	550.24921	637.65179	117.85616	537.62744	627.68713	
1763	17.620	-194.12912	12.33713	-118.54828	180.73625	39.67290	-211.88113	-161.90945	40.75314	433.88425	208.88513	17.14460	482.40210	8.70280	1204.04712	-187.52971	-96.86526	575.97632	-306.43155	61.77366	572.21167	-315.91785	-34.69012	550.20264	635.88562	117.81097	537.67371	625.65588	
1764	17.630	-194.26414	12.33145	-118.60230	180.80139	33.30120	-213.37862	-162.27403	34.51738	432.24957	209.24294	18.03731	483.10455	7.59962	1204.05322	-189.39066	-97.10566	575.75189	-308.13461	61.30921	572.20081	-317.75247	-34.34969	550.25360	633.92535	117.75626	537.66077	623.70874	
1765	17.640	-194.43001	12.29892	-118.70525	181.03824	26.73289	-214.92206	-162.59303	28.46664	430.28833	209.18108	18.06334	482.90231	6.91124	1204.02588	-191.37245	-97.46501	575.68378	-309.86380	60.97445	572.14490	-319.59647	-33.97197	550.30780	632.08813	118.48980	537.77289	621.69592	
1766	17.650	-194.59306	12.31075	-118.76241	181.69217	20.09270	-216.67508	-162.82436	22.39484	427.90573	209.19669	18.09776	482.85611	5.89426	1204.02026	-193.44330	-98.00330	575.48480	-311.88568	60.36363	571.95520	-321.60257	-33.78708	550.31323	629.97156	118.31647	537.92340	619.71082	
1767	17.660	-194.64125	12.25210	-118.79806	182.60181	18.21920	-218.46663	-163.85448	20.91353	428.15793	209.12727	18.11537	482.80975	4.97621	1204.17737	-195.55507	-98.67741	575.51971	-313.87115	59.34727	572.01337	-323.39301	-34.16829	550.67200	628.00659	118.27617	538.11450	617.75952	
1768	17.670	-194.74887	12.19732	-118.86718	182.81258	15.93368	-218.99004	-164.34709	21.63072	427.36383	209.05367	18.27230	482.57669	4.33947	1204.08582	-197.65501	-99.20976	575.67188	-315.81131	59.10648	572.28851	-325.62845	-33.99033	552.04120	626.42084	117.95392	539.41913	615.88751	
1769	17.680	-194.80869	12.28100	-118.85196	183.29950	15.66885	-218.75386	-163.26115	22.06706	427.50278	208.79219	18.90842	482.22379	3.93922	1204.56677	-200.28909	-100.10118	575.93427	-317.50018	58.57265	572.71649	-327.66650	-33.58699	553.48438	624.48431	117.89963	541.13025	614.06079	
1770	17.690	-194.66736	12.92385	-119.26759	182.42906	15.53844	-218.61336	-163.05740	21.61783	427.74802	208.98601	19.71441	481.64008	3.35320	1205.67114	-203.29779	-100.66618	576.48962	-318.84961	57.75038	573.98572	-329.41287	-33.43567	554.65460	623.06390	118.45187	542.56323	612.16846	
1771	17.700	-192.25276	17.17944	-120.04715	180.58492	14.55933	-219.49438	-163.02490	20.83132	427.54767	208.42749	22.75993	481.65552	2.36980	1206.46790	-206.14685	-101.49535	577.67621	-320.45071	56.48766	575.04456	-330.68063	-32.92511	555.17780	621.41681	118.68314	543.02875	610.36688	
1772	17.710	-188.46141	21.52795	-118.27787	180.19679	14.89251	-219.81566	-163.49989	20.87934	427.23819	204.97726	26.06711	483.84949	0.51150	1207.23340	-207.81134	-101.94162	578.88147	-321.96463	56.43092	576.20062	-332.94476	-32.87433	555.53583	619.51093	119.02961	543.31189	608.38379	
1773	17.720	-185.27492	26.65218	-116.34547	180.35313	14.55766	-220.12578	-163.55988	20.96239	426.58609	200.73610	34.01427	483.49350	-1.77083	1208.47778	-208.74342	-102.62405	579.68323	-323.94736	55.76683	576.91754	-334.64816	-32.85312	556.19965	617.85132	119.23504	544.11481	606.52295	
1774	17.730	-185.59398	36.26855	-118.02541	180.70900	14.25215	-220.10413	-163.46680	21.06135	426.54413	197.54845	42.66225	482.11072	-3.31737	1209.42798	-208.95628	-103.11726	579.61859	-325.59656	54.88348	577.43225	-335.69931	-32.55339	556.68842	616.28845	119.49200	544.84491	605.20587	
